solid OpenSCAD_Model
  facet normal 1 0 0
    outer loop
      vertex 60.5 45 -9
      vertex 60.5 42.999 -11
      vertex 60.5 45 -27
    endloop
  endfacet
  facet normal 1 -0 0
    outer loop
      vertex 60.5 25 -9
      vertex 60.5 42.999 -11
      vertex 60.5 45 -9
    endloop
  endfacet
  facet normal 1 0 0
    outer loop
      vertex 60.5 42.999 -11
      vertex 60.5 25 -9
      vertex 60.5 25 -11
    endloop
  endfacet
  facet normal 1 -0 0
    outer loop
      vertex 60.5 42.999 -25
      vertex 60.5 45 -27
      vertex 60.5 42.999 -11
    endloop
  endfacet
  facet normal 1 0 0
    outer loop
      vertex 60.5 25 -27
      vertex 60.5 42.999 -25
      vertex 60.5 25 -25
    endloop
  endfacet
  facet normal 1 0 0
    outer loop
      vertex 60.5 42.999 -25
      vertex 60.5 25 -27
      vertex 60.5 45 -27
    endloop
  endfacet
  facet normal -0 0 1
    outer loop
      vertex 50.5 45 -9
      vertex 60.5 25 -9
      vertex 60.5 45 -9
    endloop
  endfacet
  facet normal 0 0 1
    outer loop
      vertex 60.5 25 -9
      vertex 50.5 45 -9
      vertex 50.5 25 -9
    endloop
  endfacet
  facet normal 0 0 -1
    outer loop
      vertex 50.5 25 -27
      vertex 60.5 45 -27
      vertex 60.5 25 -27
    endloop
  endfacet
  facet normal -0 0 -1
    outer loop
      vertex 60.5 45 -27
      vertex 50.5 25 -27
      vertex 50.5 45 -27
    endloop
  endfacet
  facet normal -1 0 0
    outer loop
      vertex 50.5 25 -27
      vertex 50.5 45 -9
      vertex 50.5 45 -27
    endloop
  endfacet
  facet normal -1 -0 0
    outer loop
      vertex 50.5 45 -9
      vertex 50.5 25 -27
      vertex 50.5 25 -9
    endloop
  endfacet
  facet normal 0 1 -0
    outer loop
      vertex 60.5 45 -27
      vertex 50.5 45 -9
      vertex 60.5 45 -9
    endloop
  endfacet
  facet normal 0 1 0
    outer loop
      vertex 50.5 45 -9
      vertex 60.5 45 -27
      vertex 50.5 45 -27
    endloop
  endfacet
  facet normal 0 -1 0
    outer loop
      vertex 50.5 25 -9
      vertex 52.5 25 -11
      vertex 60.5 25 -9
    endloop
  endfacet
  facet normal 0 -1 0
    outer loop
      vertex 50.5 25 -9
      vertex 52.5 25 -25
      vertex 52.5 25 -11
    endloop
  endfacet
  facet normal 0 -1 0
    outer loop
      vertex 50.5 25 -27
      vertex 52.5 25 -25
      vertex 50.5 25 -9
    endloop
  endfacet
  facet normal 0 -1 0
    outer loop
      vertex 60.5 25 -27
      vertex 52.5 25 -25
      vertex 50.5 25 -27
    endloop
  endfacet
  facet normal 0 -1 0
    outer loop
      vertex 52.5 25 -25
      vertex 60.5 25 -27
      vertex 60.5 25 -25
    endloop
  endfacet
  facet normal 0 -1 -0
    outer loop
      vertex 60.5 25 -9
      vertex 52.5 25 -11
      vertex 60.5 25 -11
    endloop
  endfacet
  facet normal 0 0 -1
    outer loop
      vertex 52.5 25 -11
      vertex 60.5 42.999 -11
      vertex 60.5 25 -11
    endloop
  endfacet
  facet normal -0 0 -1
    outer loop
      vertex 60.5 42.999 -11
      vertex 52.5 25 -11
      vertex 52.5 42.999 -11
    endloop
  endfacet
  facet normal -0 0 1
    outer loop
      vertex 52.5 42.999 -25
      vertex 60.5 25 -25
      vertex 60.5 42.999 -25
    endloop
  endfacet
  facet normal 0 0 1
    outer loop
      vertex 60.5 25 -25
      vertex 52.5 42.999 -25
      vertex 52.5 25 -25
    endloop
  endfacet
  facet normal 1 -0 0
    outer loop
      vertex 52.5 25 -11
      vertex 52.5 42.999 -25
      vertex 52.5 42.999 -11
    endloop
  endfacet
  facet normal 1 0 0
    outer loop
      vertex 52.5 42.999 -25
      vertex 52.5 25 -11
      vertex 52.5 25 -25
    endloop
  endfacet
  facet normal 0 -1 0
    outer loop
      vertex 52.5 42.999 -25
      vertex 60.5 42.999 -11
      vertex 52.5 42.999 -11
    endloop
  endfacet
  facet normal 0 -1 -0
    outer loop
      vertex 60.5 42.999 -11
      vertex 52.5 42.999 -25
      vertex 60.5 42.999 -25
    endloop
  endfacet
endsolid OpenSCAD_Model
